<mxfile host="app.diagrams.net" agent="Mozilla/5.0 (X11; Linux x86_64) AppleWebKit/537.36 (KHTML, like Gecko) Chrome/131.0.0.0 Safari/537.36" version="25.0.1">
  <diagram name="Page-1" id="BUxCScc7LTqyZh_XqH5j">
    <mxGraphModel dx="1514" dy="1180" grid="1" gridSize="10" guides="1" tooltips="1" connect="1" arrows="1" fold="1" page="0" pageScale="1" pageWidth="850" pageHeight="1100" math="0" shadow="0">
      <root>
        <mxCell id="0" />
        <mxCell id="1" parent="0" />
        <mxCell id="DxmdrxydpdZs37YmIxee-82" style="edgeStyle=orthogonalEdgeStyle;rounded=0;orthogonalLoop=1;jettySize=auto;html=1;exitX=0.5;exitY=1;exitDx=0;exitDy=0;" edge="1" parent="1" source="DxmdrxydpdZs37YmIxee-1" target="DxmdrxydpdZs37YmIxee-2">
          <mxGeometry relative="1" as="geometry" />
        </mxCell>
        <mxCell id="DxmdrxydpdZs37YmIxee-1" value="countMaterial()" style="shape=process;whiteSpace=wrap;html=1;backgroundOutline=1;" vertex="1" parent="1">
          <mxGeometry x="-490" y="-180" width="140" height="80" as="geometry" />
        </mxCell>
        <mxCell id="DxmdrxydpdZs37YmIxee-83" style="edgeStyle=orthogonalEdgeStyle;rounded=0;orthogonalLoop=1;jettySize=auto;html=1;exitX=0.5;exitY=1;exitDx=0;exitDy=0;" edge="1" parent="1" source="DxmdrxydpdZs37YmIxee-2" target="DxmdrxydpdZs37YmIxee-3">
          <mxGeometry relative="1" as="geometry" />
        </mxCell>
        <mxCell id="DxmdrxydpdZs37YmIxee-2" value="material = 0" style="rounded=0;whiteSpace=wrap;html=1;" vertex="1" parent="1">
          <mxGeometry x="-480" y="-70" width="120" height="60" as="geometry" />
        </mxCell>
        <mxCell id="DxmdrxydpdZs37YmIxee-22" style="edgeStyle=orthogonalEdgeStyle;rounded=0;orthogonalLoop=1;jettySize=auto;html=1;exitX=0.5;exitY=1;exitDx=0;exitDy=0;" edge="1" parent="1" source="DxmdrxydpdZs37YmIxee-3" target="DxmdrxydpdZs37YmIxee-19">
          <mxGeometry relative="1" as="geometry" />
        </mxCell>
        <mxCell id="DxmdrxydpdZs37YmIxee-3" value="Begin looping though all the squares on the board" style="rounded=0;whiteSpace=wrap;html=1;" vertex="1" parent="1">
          <mxGeometry x="-480" y="10" width="120" height="60" as="geometry" />
        </mxCell>
        <mxCell id="DxmdrxydpdZs37YmIxee-24" style="edgeStyle=orthogonalEdgeStyle;rounded=0;orthogonalLoop=1;jettySize=auto;html=1;exitX=0.5;exitY=1;exitDx=0;exitDy=0;entryX=0.5;entryY=0;entryDx=0;entryDy=0;" edge="1" parent="1" source="DxmdrxydpdZs37YmIxee-4" target="DxmdrxydpdZs37YmIxee-6">
          <mxGeometry relative="1" as="geometry" />
        </mxCell>
        <mxCell id="DxmdrxydpdZs37YmIxee-36" value="Text" style="edgeLabel;html=1;align=center;verticalAlign=middle;resizable=0;points=[];" vertex="1" connectable="0" parent="DxmdrxydpdZs37YmIxee-24">
          <mxGeometry x="-0.2" relative="1" as="geometry">
            <mxPoint as="offset" />
          </mxGeometry>
        </mxCell>
        <mxCell id="DxmdrxydpdZs37YmIxee-4" value="next square" style="rounded=0;whiteSpace=wrap;html=1;" vertex="1" parent="1">
          <mxGeometry x="-480" y="290" width="120" height="60" as="geometry" />
        </mxCell>
        <mxCell id="DxmdrxydpdZs37YmIxee-7" style="edgeStyle=orthogonalEdgeStyle;rounded=0;orthogonalLoop=1;jettySize=auto;html=1;exitX=1;exitY=0.5;exitDx=0;exitDy=0;entryX=1;entryY=0.5;entryDx=0;entryDy=0;" edge="1" parent="1" source="DxmdrxydpdZs37YmIxee-6" target="DxmdrxydpdZs37YmIxee-19">
          <mxGeometry relative="1" as="geometry">
            <Array as="points">
              <mxPoint x="-250" y="460" />
              <mxPoint x="-250" y="170" />
            </Array>
          </mxGeometry>
        </mxCell>
        <mxCell id="DxmdrxydpdZs37YmIxee-35" value="No" style="edgeLabel;html=1;align=center;verticalAlign=middle;resizable=0;points=[];" vertex="1" connectable="0" parent="DxmdrxydpdZs37YmIxee-7">
          <mxGeometry x="-0.92" relative="1" as="geometry">
            <mxPoint as="offset" />
          </mxGeometry>
        </mxCell>
        <mxCell id="DxmdrxydpdZs37YmIxee-37" style="edgeStyle=orthogonalEdgeStyle;rounded=0;orthogonalLoop=1;jettySize=auto;html=1;exitX=0.5;exitY=1;exitDx=0;exitDy=0;" edge="1" parent="1" source="DxmdrxydpdZs37YmIxee-6" target="DxmdrxydpdZs37YmIxee-8">
          <mxGeometry relative="1" as="geometry" />
        </mxCell>
        <mxCell id="DxmdrxydpdZs37YmIxee-38" value="Yes" style="edgeLabel;html=1;align=center;verticalAlign=middle;resizable=0;points=[];" vertex="1" connectable="0" parent="DxmdrxydpdZs37YmIxee-37">
          <mxGeometry x="0.5333" relative="1" as="geometry">
            <mxPoint as="offset" />
          </mxGeometry>
        </mxCell>
        <mxCell id="DxmdrxydpdZs37YmIxee-6" value="Does the square have a piece on it?" style="rhombus;whiteSpace=wrap;html=1;" vertex="1" parent="1">
          <mxGeometry x="-500" y="380" width="160" height="160" as="geometry" />
        </mxCell>
        <mxCell id="DxmdrxydpdZs37YmIxee-32" style="edgeStyle=orthogonalEdgeStyle;rounded=0;orthogonalLoop=1;jettySize=auto;html=1;exitX=0.5;exitY=1;exitDx=0;exitDy=0;" edge="1" parent="1" source="DxmdrxydpdZs37YmIxee-8" target="DxmdrxydpdZs37YmIxee-14">
          <mxGeometry relative="1" as="geometry" />
        </mxCell>
        <mxCell id="DxmdrxydpdZs37YmIxee-33" value="Yes" style="edgeLabel;html=1;align=center;verticalAlign=middle;resizable=0;points=[];" vertex="1" connectable="0" parent="DxmdrxydpdZs37YmIxee-32">
          <mxGeometry x="0.6333" y="2" relative="1" as="geometry">
            <mxPoint as="offset" />
          </mxGeometry>
        </mxCell>
        <mxCell id="DxmdrxydpdZs37YmIxee-49" style="edgeStyle=orthogonalEdgeStyle;rounded=0;orthogonalLoop=1;jettySize=auto;html=1;exitX=1;exitY=0.5;exitDx=0;exitDy=0;" edge="1" parent="1" source="DxmdrxydpdZs37YmIxee-8">
          <mxGeometry relative="1" as="geometry">
            <mxPoint x="-250" y="460" as="targetPoint" />
          </mxGeometry>
        </mxCell>
        <mxCell id="DxmdrxydpdZs37YmIxee-84" value="No" style="edgeLabel;html=1;align=center;verticalAlign=middle;resizable=0;points=[];" vertex="1" connectable="0" parent="DxmdrxydpdZs37YmIxee-49">
          <mxGeometry x="-0.6969" y="-3" relative="1" as="geometry">
            <mxPoint as="offset" />
          </mxGeometry>
        </mxCell>
        <mxCell id="DxmdrxydpdZs37YmIxee-8" value="Is the piece of the specified colour?" style="rhombus;whiteSpace=wrap;html=1;" vertex="1" parent="1">
          <mxGeometry x="-500" y="560" width="160" height="160" as="geometry" />
        </mxCell>
        <mxCell id="DxmdrxydpdZs37YmIxee-28" style="edgeStyle=orthogonalEdgeStyle;rounded=0;orthogonalLoop=1;jettySize=auto;html=1;exitX=0.5;exitY=1;exitDx=0;exitDy=0;" edge="1" parent="1" source="DxmdrxydpdZs37YmIxee-14" target="DxmdrxydpdZs37YmIxee-15">
          <mxGeometry relative="1" as="geometry" />
        </mxCell>
        <mxCell id="DxmdrxydpdZs37YmIxee-42" value="No" style="edgeLabel;html=1;align=center;verticalAlign=middle;resizable=0;points=[];" vertex="1" connectable="0" parent="DxmdrxydpdZs37YmIxee-28">
          <mxGeometry y="1" relative="1" as="geometry">
            <mxPoint as="offset" />
          </mxGeometry>
        </mxCell>
        <mxCell id="DxmdrxydpdZs37YmIxee-43" style="edgeStyle=orthogonalEdgeStyle;rounded=0;orthogonalLoop=1;jettySize=auto;html=1;exitX=1;exitY=0.5;exitDx=0;exitDy=0;" edge="1" parent="1" source="DxmdrxydpdZs37YmIxee-14" target="DxmdrxydpdZs37YmIxee-44">
          <mxGeometry relative="1" as="geometry">
            <mxPoint x="-300" y="830" as="targetPoint" />
          </mxGeometry>
        </mxCell>
        <mxCell id="DxmdrxydpdZs37YmIxee-48" value="Yes" style="edgeLabel;html=1;align=center;verticalAlign=middle;resizable=0;points=[];" vertex="1" connectable="0" parent="DxmdrxydpdZs37YmIxee-43">
          <mxGeometry x="0.5667" y="2" relative="1" as="geometry">
            <mxPoint as="offset" />
          </mxGeometry>
        </mxCell>
        <mxCell id="DxmdrxydpdZs37YmIxee-14" value="Is the piece a pawn?" style="rhombus;whiteSpace=wrap;html=1;" vertex="1" parent="1">
          <mxGeometry x="-500" y="750" width="160" height="160" as="geometry" />
        </mxCell>
        <mxCell id="DxmdrxydpdZs37YmIxee-29" style="edgeStyle=orthogonalEdgeStyle;rounded=0;orthogonalLoop=1;jettySize=auto;html=1;exitX=0.5;exitY=1;exitDx=0;exitDy=0;" edge="1" parent="1" source="DxmdrxydpdZs37YmIxee-15" target="DxmdrxydpdZs37YmIxee-16">
          <mxGeometry relative="1" as="geometry" />
        </mxCell>
        <mxCell id="DxmdrxydpdZs37YmIxee-53" value="No" style="edgeLabel;html=1;align=center;verticalAlign=middle;resizable=0;points=[];" vertex="1" connectable="0" parent="DxmdrxydpdZs37YmIxee-29">
          <mxGeometry x="-0.575" y="-2" relative="1" as="geometry">
            <mxPoint as="offset" />
          </mxGeometry>
        </mxCell>
        <mxCell id="DxmdrxydpdZs37YmIxee-51" style="edgeStyle=orthogonalEdgeStyle;rounded=0;orthogonalLoop=1;jettySize=auto;html=1;exitX=1;exitY=0.5;exitDx=0;exitDy=0;" edge="1" parent="1" source="DxmdrxydpdZs37YmIxee-15" target="DxmdrxydpdZs37YmIxee-47">
          <mxGeometry relative="1" as="geometry" />
        </mxCell>
        <mxCell id="DxmdrxydpdZs37YmIxee-52" value="Yes" style="edgeLabel;html=1;align=center;verticalAlign=middle;resizable=0;points=[];" vertex="1" connectable="0" parent="DxmdrxydpdZs37YmIxee-51">
          <mxGeometry x="-0.72" y="-1" relative="1" as="geometry">
            <mxPoint as="offset" />
          </mxGeometry>
        </mxCell>
        <mxCell id="DxmdrxydpdZs37YmIxee-15" value="Else, is the piece a&amp;nbsp;&lt;div&gt;knight?&lt;div&gt;&lt;br&gt;&lt;/div&gt;&lt;/div&gt;" style="rhombus;whiteSpace=wrap;html=1;" vertex="1" parent="1">
          <mxGeometry x="-500" y="950" width="160" height="160" as="geometry" />
        </mxCell>
        <mxCell id="DxmdrxydpdZs37YmIxee-30" style="edgeStyle=orthogonalEdgeStyle;rounded=0;orthogonalLoop=1;jettySize=auto;html=1;exitX=0.5;exitY=1;exitDx=0;exitDy=0;" edge="1" parent="1" source="DxmdrxydpdZs37YmIxee-16" target="DxmdrxydpdZs37YmIxee-17">
          <mxGeometry relative="1" as="geometry" />
        </mxCell>
        <mxCell id="DxmdrxydpdZs37YmIxee-54" value="No" style="edgeLabel;html=1;align=center;verticalAlign=middle;resizable=0;points=[];" vertex="1" connectable="0" parent="DxmdrxydpdZs37YmIxee-30">
          <mxGeometry x="-0.6667" y="-2" relative="1" as="geometry">
            <mxPoint as="offset" />
          </mxGeometry>
        </mxCell>
        <mxCell id="DxmdrxydpdZs37YmIxee-61" style="edgeStyle=orthogonalEdgeStyle;rounded=0;orthogonalLoop=1;jettySize=auto;html=1;exitX=1;exitY=0.5;exitDx=0;exitDy=0;" edge="1" parent="1" source="DxmdrxydpdZs37YmIxee-63">
          <mxGeometry relative="1" as="geometry">
            <mxPoint x="-170" y="1030" as="targetPoint" />
          </mxGeometry>
        </mxCell>
        <mxCell id="DxmdrxydpdZs37YmIxee-16" value="Else, is the piece a&amp;nbsp;&lt;div&gt;bishop?&lt;div&gt;&lt;br&gt;&lt;/div&gt;&lt;/div&gt;" style="rhombus;whiteSpace=wrap;html=1;" vertex="1" parent="1">
          <mxGeometry x="-500" y="1140" width="160" height="160" as="geometry" />
        </mxCell>
        <mxCell id="DxmdrxydpdZs37YmIxee-31" style="edgeStyle=orthogonalEdgeStyle;rounded=0;orthogonalLoop=1;jettySize=auto;html=1;exitX=0.5;exitY=1;exitDx=0;exitDy=0;" edge="1" parent="1" source="DxmdrxydpdZs37YmIxee-17" target="DxmdrxydpdZs37YmIxee-18">
          <mxGeometry relative="1" as="geometry" />
        </mxCell>
        <mxCell id="DxmdrxydpdZs37YmIxee-71" value="No" style="edgeLabel;html=1;align=center;verticalAlign=middle;resizable=0;points=[];" vertex="1" connectable="0" parent="DxmdrxydpdZs37YmIxee-31">
          <mxGeometry x="-0.1667" y="-2" relative="1" as="geometry">
            <mxPoint as="offset" />
          </mxGeometry>
        </mxCell>
        <mxCell id="DxmdrxydpdZs37YmIxee-65" style="edgeStyle=orthogonalEdgeStyle;rounded=0;orthogonalLoop=1;jettySize=auto;html=1;exitX=1;exitY=0.5;exitDx=0;exitDy=0;" edge="1" parent="1" source="DxmdrxydpdZs37YmIxee-68">
          <mxGeometry relative="1" as="geometry">
            <mxPoint x="-170" y="1220" as="targetPoint" />
          </mxGeometry>
        </mxCell>
        <mxCell id="DxmdrxydpdZs37YmIxee-17" value="Else, is the piece a&amp;nbsp;&lt;div&gt;rook?&lt;div&gt;&lt;br&gt;&lt;/div&gt;&lt;/div&gt;" style="rhombus;whiteSpace=wrap;html=1;" vertex="1" parent="1">
          <mxGeometry x="-500" y="1330" width="160" height="160" as="geometry" />
        </mxCell>
        <mxCell id="DxmdrxydpdZs37YmIxee-72" style="edgeStyle=orthogonalEdgeStyle;rounded=0;orthogonalLoop=1;jettySize=auto;html=1;exitX=1;exitY=0.5;exitDx=0;exitDy=0;" edge="1" parent="1" source="DxmdrxydpdZs37YmIxee-73">
          <mxGeometry relative="1" as="geometry">
            <mxPoint x="-170" y="1410" as="targetPoint" />
          </mxGeometry>
        </mxCell>
        <mxCell id="DxmdrxydpdZs37YmIxee-18" value="Else, is the piece a&amp;nbsp;&lt;div&gt;queen?&lt;div&gt;&lt;br&gt;&lt;/div&gt;&lt;/div&gt;" style="rhombus;whiteSpace=wrap;html=1;" vertex="1" parent="1">
          <mxGeometry x="-500" y="1530" width="160" height="160" as="geometry" />
        </mxCell>
        <mxCell id="DxmdrxydpdZs37YmIxee-23" style="edgeStyle=orthogonalEdgeStyle;rounded=0;orthogonalLoop=1;jettySize=auto;html=1;exitX=0.5;exitY=1;exitDx=0;exitDy=0;entryX=0.5;entryY=0;entryDx=0;entryDy=0;" edge="1" parent="1" source="DxmdrxydpdZs37YmIxee-19" target="DxmdrxydpdZs37YmIxee-4">
          <mxGeometry relative="1" as="geometry" />
        </mxCell>
        <mxCell id="DxmdrxydpdZs37YmIxee-78" value="No" style="edgeLabel;html=1;align=center;verticalAlign=middle;resizable=0;points=[];" vertex="1" connectable="0" parent="DxmdrxydpdZs37YmIxee-23">
          <mxGeometry x="-0.05" relative="1" as="geometry">
            <mxPoint as="offset" />
          </mxGeometry>
        </mxCell>
        <mxCell id="DxmdrxydpdZs37YmIxee-80" style="edgeStyle=orthogonalEdgeStyle;rounded=0;orthogonalLoop=1;jettySize=auto;html=1;exitX=0;exitY=0.5;exitDx=0;exitDy=0;entryX=1;entryY=0.5;entryDx=0;entryDy=0;" edge="1" parent="1" source="DxmdrxydpdZs37YmIxee-19" target="DxmdrxydpdZs37YmIxee-79">
          <mxGeometry relative="1" as="geometry" />
        </mxCell>
        <mxCell id="DxmdrxydpdZs37YmIxee-81" value="Yes" style="edgeLabel;html=1;align=center;verticalAlign=middle;resizable=0;points=[];" vertex="1" connectable="0" parent="DxmdrxydpdZs37YmIxee-80">
          <mxGeometry x="-0.2667" y="3" relative="1" as="geometry">
            <mxPoint as="offset" />
          </mxGeometry>
        </mxCell>
        <mxCell id="DxmdrxydpdZs37YmIxee-19" value="Have all the squares been iterated over?" style="rhombus;whiteSpace=wrap;html=1;" vertex="1" parent="1">
          <mxGeometry x="-500" y="90" width="160" height="160" as="geometry" />
        </mxCell>
        <mxCell id="DxmdrxydpdZs37YmIxee-62" style="edgeStyle=orthogonalEdgeStyle;rounded=0;orthogonalLoop=1;jettySize=auto;html=1;exitX=1;exitY=0.5;exitDx=0;exitDy=0;" edge="1" parent="1" source="DxmdrxydpdZs37YmIxee-44">
          <mxGeometry relative="1" as="geometry">
            <mxPoint x="-170" y="830" as="targetPoint" />
          </mxGeometry>
        </mxCell>
        <mxCell id="DxmdrxydpdZs37YmIxee-44" value="material += 100" style="rounded=0;whiteSpace=wrap;html=1;" vertex="1" parent="1">
          <mxGeometry x="-310" y="800" width="120" height="60" as="geometry" />
        </mxCell>
        <mxCell id="DxmdrxydpdZs37YmIxee-60" style="edgeStyle=orthogonalEdgeStyle;rounded=0;orthogonalLoop=1;jettySize=auto;html=1;exitX=1;exitY=0.5;exitDx=0;exitDy=0;" edge="1" parent="1" source="DxmdrxydpdZs37YmIxee-47">
          <mxGeometry relative="1" as="geometry">
            <mxPoint x="-250" y="170" as="targetPoint" />
            <Array as="points">
              <mxPoint x="-170" y="1030" />
              <mxPoint x="-170" y="170" />
              <mxPoint x="-250" y="170" />
            </Array>
          </mxGeometry>
        </mxCell>
        <mxCell id="DxmdrxydpdZs37YmIxee-47" value="material += 300" style="rounded=0;whiteSpace=wrap;html=1;" vertex="1" parent="1">
          <mxGeometry x="-310" y="1000" width="120" height="60" as="geometry" />
        </mxCell>
        <mxCell id="DxmdrxydpdZs37YmIxee-66" value="" style="edgeStyle=orthogonalEdgeStyle;rounded=0;orthogonalLoop=1;jettySize=auto;html=1;exitX=1;exitY=0.5;exitDx=0;exitDy=0;" edge="1" parent="1" source="DxmdrxydpdZs37YmIxee-16" target="DxmdrxydpdZs37YmIxee-63">
          <mxGeometry relative="1" as="geometry">
            <mxPoint x="-170" y="1030" as="targetPoint" />
            <mxPoint x="-340" y="1220" as="sourcePoint" />
          </mxGeometry>
        </mxCell>
        <mxCell id="DxmdrxydpdZs37YmIxee-67" value="Yes" style="edgeLabel;html=1;align=center;verticalAlign=middle;resizable=0;points=[];" vertex="1" connectable="0" parent="DxmdrxydpdZs37YmIxee-66">
          <mxGeometry x="-0.9279" y="1" relative="1" as="geometry">
            <mxPoint as="offset" />
          </mxGeometry>
        </mxCell>
        <mxCell id="DxmdrxydpdZs37YmIxee-63" value="material += 300" style="rounded=0;whiteSpace=wrap;html=1;" vertex="1" parent="1">
          <mxGeometry x="-310" y="1190" width="120" height="60" as="geometry" />
        </mxCell>
        <mxCell id="DxmdrxydpdZs37YmIxee-69" value="" style="edgeStyle=orthogonalEdgeStyle;rounded=0;orthogonalLoop=1;jettySize=auto;html=1;exitX=1;exitY=0.5;exitDx=0;exitDy=0;" edge="1" parent="1" source="DxmdrxydpdZs37YmIxee-17" target="DxmdrxydpdZs37YmIxee-68">
          <mxGeometry relative="1" as="geometry">
            <mxPoint x="-170" y="1220" as="targetPoint" />
            <mxPoint x="-340" y="1410" as="sourcePoint" />
          </mxGeometry>
        </mxCell>
        <mxCell id="DxmdrxydpdZs37YmIxee-70" value="Yes" style="edgeLabel;html=1;align=center;verticalAlign=middle;resizable=0;points=[];" vertex="1" connectable="0" parent="DxmdrxydpdZs37YmIxee-69">
          <mxGeometry x="0.2" y="3" relative="1" as="geometry">
            <mxPoint as="offset" />
          </mxGeometry>
        </mxCell>
        <mxCell id="DxmdrxydpdZs37YmIxee-68" value="material += 500" style="rounded=0;whiteSpace=wrap;html=1;" vertex="1" parent="1">
          <mxGeometry x="-310" y="1380" width="120" height="60" as="geometry" />
        </mxCell>
        <mxCell id="DxmdrxydpdZs37YmIxee-74" value="" style="edgeStyle=orthogonalEdgeStyle;rounded=0;orthogonalLoop=1;jettySize=auto;html=1;exitX=1;exitY=0.5;exitDx=0;exitDy=0;" edge="1" parent="1" source="DxmdrxydpdZs37YmIxee-18" target="DxmdrxydpdZs37YmIxee-73">
          <mxGeometry relative="1" as="geometry">
            <mxPoint x="-170" y="1410" as="targetPoint" />
            <mxPoint x="-340" y="1610" as="sourcePoint" />
          </mxGeometry>
        </mxCell>
        <mxCell id="DxmdrxydpdZs37YmIxee-77" value="Yes" style="edgeLabel;html=1;align=center;verticalAlign=middle;resizable=0;points=[];" vertex="1" connectable="0" parent="DxmdrxydpdZs37YmIxee-74">
          <mxGeometry x="-0.72" relative="1" as="geometry">
            <mxPoint as="offset" />
          </mxGeometry>
        </mxCell>
        <mxCell id="DxmdrxydpdZs37YmIxee-73" value="material += 900" style="rounded=0;whiteSpace=wrap;html=1;" vertex="1" parent="1">
          <mxGeometry x="-310" y="1580" width="120" height="60" as="geometry" />
        </mxCell>
        <mxCell id="DxmdrxydpdZs37YmIxee-79" value="return Material" style="rounded=1;whiteSpace=wrap;html=1;" vertex="1" parent="1">
          <mxGeometry x="-650" y="140" width="120" height="60" as="geometry" />
        </mxCell>
        <mxCell id="DxmdrxydpdZs37YmIxee-88" style="edgeStyle=orthogonalEdgeStyle;rounded=0;orthogonalLoop=1;jettySize=auto;html=1;exitX=0.5;exitY=1;exitDx=0;exitDy=0;" edge="1" parent="1" source="DxmdrxydpdZs37YmIxee-87" target="DxmdrxydpdZs37YmIxee-89">
          <mxGeometry relative="1" as="geometry">
            <mxPoint x="240" y="-40" as="targetPoint" />
          </mxGeometry>
        </mxCell>
        <mxCell id="DxmdrxydpdZs37YmIxee-87" value="Evaluate()" style="shape=process;whiteSpace=wrap;html=1;backgroundOutline=1;" vertex="1" parent="1">
          <mxGeometry x="170" y="-150" width="140" height="80" as="geometry" />
        </mxCell>
        <mxCell id="DxmdrxydpdZs37YmIxee-91" style="edgeStyle=orthogonalEdgeStyle;rounded=0;orthogonalLoop=1;jettySize=auto;html=1;exitX=0.5;exitY=1;exitDx=0;exitDy=0;" edge="1" parent="1" source="DxmdrxydpdZs37YmIxee-89" target="DxmdrxydpdZs37YmIxee-90">
          <mxGeometry relative="1" as="geometry" />
        </mxCell>
        <mxCell id="DxmdrxydpdZs37YmIxee-89" value="whiteEval = countMaterial(board, 16)" style="rounded=0;whiteSpace=wrap;html=1;" vertex="1" parent="1">
          <mxGeometry x="180" y="-40" width="120" height="60" as="geometry" />
        </mxCell>
        <mxCell id="DxmdrxydpdZs37YmIxee-99" style="edgeStyle=orthogonalEdgeStyle;rounded=0;orthogonalLoop=1;jettySize=auto;html=1;exitX=0.5;exitY=1;exitDx=0;exitDy=0;" edge="1" parent="1" source="DxmdrxydpdZs37YmIxee-90" target="DxmdrxydpdZs37YmIxee-92">
          <mxGeometry relative="1" as="geometry" />
        </mxCell>
        <mxCell id="DxmdrxydpdZs37YmIxee-90" value="blackEval = countMaterial(board, 8)" style="rounded=0;whiteSpace=wrap;html=1;" vertex="1" parent="1">
          <mxGeometry x="180" y="40" width="120" height="60" as="geometry" />
        </mxCell>
        <mxCell id="DxmdrxydpdZs37YmIxee-94" style="edgeStyle=orthogonalEdgeStyle;rounded=0;orthogonalLoop=1;jettySize=auto;html=1;exitX=0.5;exitY=1;exitDx=0;exitDy=0;" edge="1" parent="1" source="DxmdrxydpdZs37YmIxee-92" target="DxmdrxydpdZs37YmIxee-93">
          <mxGeometry relative="1" as="geometry" />
        </mxCell>
        <mxCell id="DxmdrxydpdZs37YmIxee-96" value="Yes" style="edgeLabel;html=1;align=center;verticalAlign=middle;resizable=0;points=[];" vertex="1" connectable="0" parent="DxmdrxydpdZs37YmIxee-94">
          <mxGeometry x="0.2" y="3" relative="1" as="geometry">
            <mxPoint as="offset" />
          </mxGeometry>
        </mxCell>
        <mxCell id="DxmdrxydpdZs37YmIxee-95" style="edgeStyle=orthogonalEdgeStyle;rounded=0;orthogonalLoop=1;jettySize=auto;html=1;exitX=1;exitY=0.5;exitDx=0;exitDy=0;" edge="1" parent="1" source="DxmdrxydpdZs37YmIxee-92">
          <mxGeometry relative="1" as="geometry">
            <mxPoint x="370" y="185" as="targetPoint" />
          </mxGeometry>
        </mxCell>
        <mxCell id="DxmdrxydpdZs37YmIxee-97" value="No" style="edgeLabel;html=1;align=center;verticalAlign=middle;resizable=0;points=[];" vertex="1" connectable="0" parent="DxmdrxydpdZs37YmIxee-95">
          <mxGeometry x="-0.3283" y="-1" relative="1" as="geometry">
            <mxPoint as="offset" />
          </mxGeometry>
        </mxCell>
        <mxCell id="DxmdrxydpdZs37YmIxee-92" value="Is the colour specified black?" style="rhombus;whiteSpace=wrap;html=1;" vertex="1" parent="1">
          <mxGeometry x="175" y="120" width="130" height="130" as="geometry" />
        </mxCell>
        <mxCell id="DxmdrxydpdZs37YmIxee-93" value="return blackEval-whiteEval" style="rounded=1;whiteSpace=wrap;html=1;" vertex="1" parent="1">
          <mxGeometry x="180" y="280" width="120" height="60" as="geometry" />
        </mxCell>
        <mxCell id="DxmdrxydpdZs37YmIxee-98" value="return whiteEval-blackEval" style="rounded=1;whiteSpace=wrap;html=1;" vertex="1" parent="1">
          <mxGeometry x="370" y="155" width="120" height="60" as="geometry" />
        </mxCell>
      </root>
    </mxGraphModel>
  </diagram>
</mxfile>
